<svg xmlns="http://www.w3.org/2000/svg" width="100" height="19" viewBox="0 0 100 19">
  <g fill="#F4AE1F" fill-rule="evenodd">
    <polygon points="10 15 4.122 18.09 5.245 11.545 .489 6.91 7.061 5.955 10 0 12.939 5.955 19.511 6.91 14.755 11.545 15.878 18.09"/>
    <polygon points="30 15 24.122 18.09 25.245 11.545 20.489 6.91 27.061 5.955 30 0 32.939 5.955 39.511 6.91 34.755 11.545 35.878 18.09"/>
    <polygon points="50 15 44.122 18.09 45.245 11.545 40.489 6.91 47.061 5.955 50 0 52.939 5.955 59.511 6.91 54.755 11.545 55.878 18.09"/>
    <polygon points="70 15 64.122 18.09 65.245 11.545 60.489 6.91 67.061 5.955 70 0 72.939 5.955 79.511 6.91 74.755 11.545 75.878 18.09"/>
    <polygon points="90 15 84.122 18.09 85.245 11.545 80.489 6.91 87.061 5.955 90 0 92.939 5.955 99.511 6.91 94.755 11.545 95.878 18.09"/>
  </g>
</svg>
